# xmcd
#
# Track frame offsets: 
#        150
#        13102
#        26480
#        39927
#        51987
#        67260
#        79995
#        93427
#        114670
#        133987
#        148952
#        164140
#        176977
#        188550
#        199660
#        212552
#        226265
#        240185
#        252730
#        266137
#        280547
#        293697
#
# Disc length: 4204 seconds
#
# Revision: 1
# Processed by: cddbd v1.5.2PL0 Copyright (c) Steve Scherf et al.
# Submitted via: ExactAudioCopyFreeDBPlugin 1.0
#
DISCID=51106a16
DTITLE=Various Artist - Legends Of Country Blues Guitar
DYEAR=1900
DGENRE=Other
TTITLE0=Blind Lemon Jefferson - One Kind Favor
TTITLE1=Blind Lemon Jefferson - Hot Dogs
TTITLE2=Big Bill Broonzy - Big Bill Blues
TTITLE3=Big Bill Broonzy - Mississippi River Blues
TTITLE4=Blind Blake - Georgia Bound
TTITLE5=Blind Blake - Chump Man Blues
TTITLE6=Blind Blake - Diddie Wa Diddie
TTITLE7=Rev. Gary Davis - Cincinnati Flow Rag
TTITLE8=Rev. Gary Davis - Sally, Where'd You Get Your Liquor From
TTITLE9=Rev. Gary Davis - Italian Rag
TTITLE10=Blind Boy Fuller - Black and Tan
TTITLE11=Blind Boy Fuller - Untrue Blues
TTITLE12=Blind Boy Fuller - Baby, Quit Your Low Down Ways
TTITLE13=Lonnie Johnson - Love Story Blues
TTITLE14=Lonnie Johnson - Away Down In The Alley Blues
TTITLE15=Josh White - Little Brother Blues
TTITLE16=Josh White - Jesus Gonna Make Up My Dying Bed
TTITLE17=Charley Jordan - Keep It Clean
TTITLE18=Charley Jordan - Hunke Tunkie Blues
TTITLE19=Arthur Pettis - Good Boy Blues
TTITLE20=Robert Wilkins - That's No Way To Get Along
TTITLE21=Willie Brown - Ragged And Dirty
EXTD=
EXTT0=
EXTT1=
EXTT2=
EXTT3=
EXTT4=
EXTT5=
EXTT6=
EXTT7=
EXTT8=
EXTT9=
EXTT10=
EXTT11=
EXTT12=
EXTT13=
EXTT14=
EXTT15=
EXTT16=
EXTT17=
EXTT18=
EXTT19=
EXTT20=
EXTT21=
PLAYORDER=
